<?xml version="1.0" encoding="UTF-8" standalone="no"?><svg xmlns="http://www.w3.org/2000/svg" xmlns:xlink="http://www.w3.org/1999/xlink" fill="#000000" height="156.5" preserveAspectRatio="xMidYMid meet" version="1" viewBox="-1.8 0.0 187.0 156.5" width="187" zoomAndPan="magnify"><linearGradient gradientUnits="userSpaceOnUse" id="a" x1="0" x2="183.29" xlink:actuate="onLoad" xlink:show="other" xlink:type="simple" y1="78.24" y2="78.24"><stop offset="0" stop-color="#000000"/><stop offset="1" stop-color="#000001"/></linearGradient><path d="M173.68,78.24L173.68,78.24L173.68,78.24l4.102-4.338v0c7.344-7.767,7.344-20.404,0-28.17 L140.185,5.975c-3.644-3.853-8.51-5.975-13.701-5.974s-10.057,2.123-13.699,5.976l-3.719,3.933l0,0v0l-3.72-3.934 C101.703,2.123,96.837,0,91.646,0s-10.057,2.122-13.7,5.975l-3.724,3.938l-3.728-3.941C66.85,2.121,61.986,0,56.795,0 c-0.001,0-0.002,0-0.002,0c-5.191,0.001-10.057,2.123-13.699,5.976L5.507,45.731C-1.836,53.498-1.835,66.135,5.508,73.9l4.104,4.339 l0,0l0,0l-4.104,4.34c-7.344,7.766-7.345,20.402-0.001,28.17l37.586,39.754c3.644,3.854,8.509,5.977,13.7,5.977 c0.001,0,0.001,0,0.002,0c5.19,0,10.055-2.121,13.698-5.973l3.728-3.941l3.724,3.939c3.644,3.853,8.509,5.975,13.7,5.975 s10.057-2.122,13.7-5.975l3.72-3.934l3.719,3.933c3.643,3.853,8.508,5.975,13.7,5.975c0,0,0,0,0.001,0 c5.19,0,10.056-2.121,13.699-5.974l37.597-39.756c7.344-7.767,7.344-20.404,0-28.171L173.68,78.24z M77.945,128.077l-3.723,3.936 L23.375,78.24l25.423-26.886l25.423-26.886l3.723,3.936c0.518,0.548,1.067,1.051,1.633,1.528c0.925,0.78,1.903,1.473,2.935,2.055 c0.003,0.002,0.006,0.003,0.008,0.004c1.106,0.623,2.267,1.129,3.469,1.512c0.015,0.005,0.031,0.007,0.046,0.012 c1.191,0.376,2.421,0.634,3.678,0.763c0.322,0.033,0.65,0.033,0.975,0.05c0.318,0.016,0.633,0.049,0.953,0.049 c0.001,0,0.002,0,0.002,0c1.298,0,2.575-0.133,3.818-0.392c3.729-0.778,7.149-2.694,9.882-5.583l3.437-3.636l0.284-0.3 l50.851,53.775l-50.849,53.776l-3.723-3.937c-3.643-3.853-8.508-5.975-13.699-5.975c-0.001,0-0.001,0-0.002,0 C86.453,122.104,81.588,124.225,77.945,128.077z M120.05,12.847c1.735-1.835,4.021-2.846,6.435-2.846s4.699,1.01,6.435,2.845 l37.597,39.756c3.762,3.978,3.762,10.451,0,14.429v0l-3.718,3.932l-50.851-53.776L120.05,12.847z M85.211,12.846 C86.947,11.011,89.232,10,91.646,10s4.699,1.011,6.435,2.845l4.104,4.341l-4.107,4.344c-1.084,1.147-2.383,1.972-3.794,2.429 c-0.847,0.274-1.734,0.417-2.639,0.417c-2.414,0-4.699-1.01-6.434-2.844l-4.106-4.342L85.211,12.846z M12.774,67.029 c-3.762-3.978-3.762-10.45-0.001-14.428L50.36,12.846C52.095,11.011,54.38,10,56.794,10c2.414,0,4.699,1.01,6.434,2.845l4.112,4.347 L41.917,44.077L16.494,70.962L12.774,67.029z M56.795,146.48L56.795,146.48c-2.415,0-4.7-1.011-6.436-2.847l-37.586-39.754 c-3.762-3.979-3.762-10.451,0-14.429l3.719-3.933l50.847,53.772l-4.112,4.347C61.494,145.47,59.209,146.48,56.795,146.48z M91.646,146.48c-2.414,0-4.699-1.011-6.435-2.846l-4.107-4.345l4.106-4.342c1.734-1.834,4.02-2.844,6.434-2.844 s4.699,1.011,6.435,2.846l4.107,4.344l-4.105,4.341C96.345,145.469,94.06,146.48,91.646,146.48z M170.516,103.878l-37.597,39.756 c-1.735,1.835-4.021,2.845-6.435,2.845s-4.699-1.011-6.434-2.845l-4.103-4.341l50.851-53.776l3.718,3.932 C174.278,93.427,174.278,99.901,170.516,103.878z" fill="url(#a)"/></svg>